<svg width="16" height="16" viewBox="0 0 16 16" fill="none" xmlns="http://www.w3.org/2000/svg">
<path d="M8 16C12.4183 16 16 12.4183 16 8C16 3.58172 12.4183 0 8 0C3.58172 0 0 3.58172 0 8C0 12.4183 3.58172 16 8 16Z" fill="#8247E5"/>
<path d="M10.6478 6.28848C10.4559 6.17685 10.2065 6.17685 9.9954 6.28848L8.49871 7.14429L7.48174 7.70244L5.98506 8.55825C5.79317 8.66988 5.54373 8.66988 5.33265 8.55825L4.14298 7.88848C3.9511 7.77686 3.81679 7.5722 3.81679 7.34893V6.02801C3.81679 5.80476 3.93192 5.6001 4.14298 5.48848L5.31347 4.8373C5.50534 4.72568 5.75479 4.72568 5.96587 4.8373L7.13634 5.48848C7.32824 5.6001 7.46255 5.80476 7.46255 6.02801V6.88382L8.47952 6.30707V5.45126C8.47952 5.22801 8.36439 5.02335 8.15333 4.91173L5.98506 3.68382C5.79317 3.57219 5.54373 3.57219 5.33265 3.68382L3.12601 4.91173C2.91493 5.02335 2.7998 5.22801 2.7998 5.45126V7.92569C2.7998 8.14894 2.91493 8.35359 3.12601 8.46522L5.33265 9.69313C5.52454 9.80477 5.77398 9.80477 5.98506 9.69313L7.48174 8.85592L8.49871 8.27917L9.9954 7.44197C10.1873 7.33034 10.4367 7.33034 10.6478 7.44197L11.8183 8.09312C12.0102 8.20476 12.1445 8.40941 12.1445 8.63267V9.9536C12.1445 10.1769 12.0293 10.3815 11.8183 10.4931L10.6478 11.1629C10.4559 11.2745 10.2065 11.2745 9.9954 11.1629L8.82491 10.5117C8.63303 10.4001 8.49871 10.1955 8.49871 9.97221V9.11639L7.48174 9.69313V10.5489C7.48174 10.7722 7.59686 10.9769 7.80794 11.0885L10.0146 12.3164C10.2065 12.428 10.4559 12.428 10.667 12.3164L12.8736 11.0885C13.0655 10.9769 13.1998 10.7722 13.1998 10.5489V8.07453C13.1998 7.85126 13.0847 7.64662 12.8736 7.53498L10.6478 6.28848Z" fill="white"/>
</svg>
